<svg xmlns="http://www.w3.org/2000/svg" version="1.1" xmlns:xlink="http://www.w3.org/1999/xlink" xmlns:svgjs="http://svgjs.dev/svgjs" width="100%" height="100%" viewBox="0 0 1000 600"><rect width="1000" height="600" x="0" y="0" fill="#24ccfa"/><g><circle r="166.66666666666666" cx="390.7557017008463" cy="412.9779536806357" fill="7E5AFF" transform="matrix(0.5578138563177186,0,0,0.5578138563177186,0,69.63515982441537)"/><path d="M397.5831678367715 487.9779571148527L382.03171865620425 487.9779571148527L332.6638912387187 356.4763033497183L331.84692955568704 356.4763033497183Q332.25541039720287 360.6778205767383 332.57635962982243 367.1843368380263Q332.89730886244206 373.6908530993143 333.1015492832 381.36445747921897Q333.3057897039579 389.0380618591237 333.3057897039579 397.0034382686825L333.3057897039579 397.0034382686825L333.3057897039579 487.9779571148527L315.8578223306385 487.9779571148527L315.8578223306385 337.97795666964396L343.80958277150796 337.97795666964396L390.0262722687285 460.8723355599803L390.8724111547256 460.8723355599803L437.93523953794323 337.97795666964396L465.6535823550894 337.97795666964396L465.6535823550894 487.9779571148527L446.95099525425707 487.9779571148527L446.95099525425707 395.74881854116956Q446.95099525425707 388.3961633938845 447.155235675015 381.16021705846106Q447.38865329873835 373.89509352007224 447.7971341402542 367.5052860706459Q448.20561498177005 361.08630141825415 448.43903260549337 356.6805437704762L448.43903260549337 356.6805437704762L447.59289371949626 356.6805437704762L397.5831678367715 487.9779571148527Z " fill="#2c4058" transform="matrix(0.5578138563177186,0,0,0.5578138563177186,0,69.63515982441537)"/><path d="M716.5403315861943 486.02989813512164L702.1193365502547 486.02989813512164L656.3401177870091 364.0872628124577L655.5825420627948 364.0872628124577Q655.961329924902 367.98336653698925 656.2589489594147 374.0169160548401Q656.5565679939276 380.05046557269105 656.7459619249812 387.16626612513403Q656.9353558560349 394.28206667757706 656.9353558560349 401.6684299886681L656.9353558560349 401.6684299886681L656.9353558560349 486.02989813512164L640.7557028888831 486.02989813512164L640.7557028888831 346.933583914173L666.6756151673637 346.933583914173L709.5327561372105 460.8946178567203L710.3173881372898 460.8946178567203L753.9591611072159 346.933583914173L779.6626231787781 346.933583914173L779.6626231787781 486.02989813512164L762.3195503494397 486.02989813512164L762.3195503494397 400.5050101264816Q762.3195503494397 393.68682860855137 762.5089442804934 386.97687219408044Q762.7253944874118 380.23985950374464 763.1041823495191 374.31453508935294Q763.4829702116264 368.3621543990964 763.6994204185447 364.2766567435113L763.6994204185447 364.2766567435113L762.9147884184655 364.2766567435113L716.5403315861943 486.02989813512164ZM905.9072063639456 433.62189178499955L905.9072063639456 433.62189178499955Q905.9072063639456 446.6900730276991 902.4981156049804 456.7008950976759Q899.0890248460154 466.7387734435176 892.7578562936517 473.7463488925014Q886.4266877412879 480.78098061734994 877.3628353265791 484.37946530736866Q868.2989829118703 487.9779499973874 857.2059098073015 487.9779499973874L857.2059098073015 487.9779499973874Q846.8704124269469 487.9779499973874 838.104179046751 484.37946530736866Q829.3379456665551 480.78098061734994 822.8985520107321 473.7463488925014Q816.486214630774 466.7387734435176 812.8877299407553 456.7008950976759Q809.2621889748717 446.6900730276991 809.2621889748717 433.62189178499955L809.2621889748717 433.62189178499955Q809.2621889748717 416.2788189556613 815.1063445616691 404.3199450234187Q820.9505001484664 392.33401481531126 831.8812355978465 386.00284626294757Q842.7849147713617 379.6716777105838 857.7740916004623 379.6716777105838L857.7740916004623 379.6716777105838Q872.0056927053483 379.6716777105838 882.8011467754044 386.00284626294757Q893.6236571213253 392.33401481531126 899.7654317426354 404.3199450234187Q905.9072063639456 416.2788189556613 905.9072063639456 433.62189178499955ZM827.0111059421821 433.62189178499955L827.0111059421821 433.62189178499955Q827.0111059421821 445.9054410276198 830.2037464942288 454.9692934423286Q833.4234433221402 464.00608958117255 840.2416248400704 468.87621923683696Q847.0598063580006 473.7463488925014 857.5846976694087 473.7463488925014L857.5846976694087 473.7463488925014Q868.1095889808167 473.7463488925014 874.9277704987469 468.87621923683696Q881.745952016677 464.00608958117255 884.9656488445886 454.9692934423286Q888.1582893966353 445.9054410276198 888.1582893966353 433.62189178499955L888.1582893966353 433.62189178499955Q888.1582893966353 421.1489486113257 884.8574237411293 412.3827152311298Q881.5565580856236 403.61648185093384 874.8195453952877 398.85457729872866Q868.1095889808167 394.0926727465234 857.395303738355 394.0926727465234L857.395303738355 394.0926727465234Q841.4050447022569 394.0926727465234 834.2080753222195 404.5905077820667Q827.0111059421821 415.1153990934748 827.0111059421821 433.62189178499955ZM983.2340427855505 379.6716777105838L983.2340427855505 379.6716777105838Q1001.9299294081289 379.6716777105838 1011.4807947884041 388.7355301252926Q1021.0316601686793 397.77232626413655 1021.0316601686793 418.03747688687343L1021.0316601686793 418.03747688687343L1021.0316601686793 486.02989813512164L1004.0673752014483 486.02989813512164L1004.0673752014483 419.20089674905995Q1004.0673752014483 406.5385596443325 998.4396698215694 400.31561619542794Q992.7849081658256 394.0926727465234 980.6907528542591 394.0926727465234L980.6907528542591 394.0926727465234Q963.3747363007857 394.0926727465234 956.7459487139091 403.83293205785225Q950.1171611270325 413.5731913691811 950.1171611270325 431.86323385378745L950.1171611270325 431.86323385378745L950.1171611270325 486.02989813512164L932.9634822287479 486.02989813512164L932.9634822287479 381.61972957284956L946.8162954715266 381.61972957284956L949.3325291269532 395.82427440187075L950.3065550580861 395.82427440187075Q953.8238709205103 390.3859629530455 958.9916196106876 386.7874782630268Q964.132312025 383.1619372971433 970.3823117497694 381.430335641796Q976.605255198674 379.6716777105838 983.2340427855505 379.6716777105838ZM1088.2394494168484 473.9627990994198L1088.2394494168484 473.9627990994198Q1092.1355531413797 473.9627990994198 1096.2210507969648 473.25933592693497Q1100.30654845255 472.5829290303149 1102.8498383838414 471.7982970302356L1102.8498383838414 471.7982970302356L1102.8498383838414 484.8664782729351Q1100.1171545214966 486.2192920661752 1095.0576309347784 487.11214916971375Q1089.9981073480603 487.9779499973874 1085.3173716234496 487.9779499973874L1085.3173716234496 487.9779499973874Q1077.1193200364146 487.9779499973874 1070.2199696908897 485.16409730744795Q1063.2935630695006 482.32318834164374 1059.0186714828617 475.3156128926599Q1054.7167236203582 468.30803744367614 1054.7167236203582 455.64570033894864L1054.7167236203582 455.64570033894864L1054.7167236203582 394.8502484707379L1039.9169407223112 394.8502484707379L1039.9169407223112 386.6792531595676L1054.9331738272767 379.8610716416374L1061.7513553452068 357.6478691566347L1071.8704025186428 357.6478691566347L1071.8704025186428 381.61972957284956L1102.065206383762 381.61972957284956L1102.065206383762 394.8502484707379L1071.8704025186428 394.8502484707379L1071.8704025186428 455.2398562009766Q1071.8704025186428 464.79072158125183 1076.4429131397942 469.3632322024034Q1081.0154237609459 473.9627990994198 1088.2394494168484 473.9627990994198ZM1123.6831707997392 381.61972957284956L1140.8368496980238 381.61972957284956L1140.8368496980238 486.02989813512164L1123.6831707997392 486.02989813512164L1123.6831707997392 381.61972957284956ZM1132.4494041799353 342.46929839648067L1132.4494041799353 342.46929839648067Q1136.3455079044666 342.46929839648067 1139.3758108013244 345.09375715536646Q1142.3790574223176 347.7182159142523 1142.3790574223176 353.372977569996L1142.3790574223176 353.372977569996Q1142.3790574223176 358.81128901882124 1139.3758108013244 361.54397288116627Q1136.3455079044666 364.2766567435113 1132.4494041799353 364.2766567435113L1132.4494041799353 364.2766567435113Q1128.1745125932962 364.2766567435113 1125.2524347998979 361.54397288116627Q1122.330357006499 358.81128901882124 1122.330357006499 353.372977569996L1122.330357006499 353.372977569996Q1122.330357006499 347.7182159142523 1125.2524347998979 345.09375715536646Q1128.1745125932962 342.46929839648067 1132.4494041799353 342.46929839648067ZM1215.8368463952559 487.9779499973874L1215.8368463952559 487.9779499973874Q1202.0110894283418 487.9779499973874 1191.1885790824208 482.32318834164374Q1180.3660687365 476.6684266859 1174.2513503910545 464.79072158125183Q1168.1095757697444 452.9130164766036 1168.1095757697444 434.40652378507883L1168.1095757697444 434.40652378507883Q1168.1095757697444 415.1153990934748 1174.5219131497026 403.048300057773Q1180.9613068055255 390.9541447462064 1191.9732110825003 385.3264393663275Q1202.9851153594745 379.6716777105838 1217.0002662574425 379.6716777105838L1217.0002662574425 379.6716777105838Q1224.981867637559 379.6716777105838 1232.3952872245147 381.32211053833674Q1239.7816505356059 382.97254336608967 1244.4623862602166 385.3264393663275L1244.4623862602166 385.3264393663275L1239.213468742445 399.5309841953487Q1234.5327330178343 397.77232626413655 1228.3097895689295 396.2301185398428Q1222.0597898441602 394.6608545396843 1216.621478395335 394.6608545396843L1216.621478395335 394.6608545396843Q1206.0965870839268 394.6608545396843 1199.2784055659968 399.1521963332415Q1192.4602240480667 403.61648185093384 1189.1323021166959 412.3827152311298Q1185.8314364611902 421.1489486113257 1185.8314364611902 434.21712985402525L1185.8314364611902 434.21712985402525Q1185.8314364611902 446.6900730276991 1189.1323021166959 455.45630640789506Q1192.4602240480667 464.22253978809096 1199.0890116349433 468.6868253057834Q1205.690742945955 473.17816709934056 1215.6474524642022 473.17816709934056L1215.6474524642022 473.17816709934056Q1224.1972356374797 473.17816709934056 1230.7448543967619 471.4195091681284Q1237.2654168801791 469.66085123691624 1242.7037283290047 467.1446175814896L1242.7037283290047 467.1446175814896L1242.7037283290047 482.32318834164374Q1237.4548108112328 485.0558722039887 1231.123642258869 486.51691110068805Q1224.7924737065055 487.9779499973874 1215.8368463952559 487.9779499973874ZM1307.774071783854 379.6716777105838L1307.774071783854 379.6716777105838Q1321.2210408886606 379.6716777105838 1330.8530750965303 385.5158332973811Q1340.5121655802648 391.3599888841784 1345.679914270442 401.9660490231809Q1350.8206066847545 412.5991654380482 1350.8206066847545 426.8037102670694L1350.8206066847545 426.8037102670694L1350.8206066847545 437.13920764742386L1279.337925849947 437.13920764742386Q1279.716713712054 454.8610683388694 1288.4017782646554 464.1143146846318Q1297.0597865413922 473.36756103039414 1312.6442014395182 473.36756103039414L1312.6442014395182 473.36756103039414Q1322.573854681901 473.36756103039414 1330.2848933033695 471.5277342715876Q1337.9688756489734 469.66085123691624 1346.1669272360084 466.1705916503567L1346.1669272360084 466.1705916503567L1346.1669272360084 481.1597684794572Q1338.1582695800269 484.67708434188154 1330.3660621309639 486.3275171696344Q1322.573854681901 487.9779499973874 1311.8595694394392 487.9779499973874L1311.8595694394392 487.9779499973874Q1297.0597865413922 487.9779499973874 1285.6690944023105 481.94440047953645Q1274.2784022632288 475.9108509616855 1267.9472337108648 463.92492075357814Q1261.6160651585012 451.93899054547074 1261.6160651585012 434.5959177161324L1261.6160651585012 434.5959177161324Q1261.6160651585012 417.4692950937126 1267.3519956418393 405.18574585109235Q1273.114982401042 392.90219660847214 1283.5316486089912 386.3004652974604Q1293.94831481694 379.6716777105838 1307.774071783854 379.6716777105838ZM1307.5846778528005 393.68682860855137L1307.5846778528005 393.68682860855137Q1295.3011286101803 393.68682860855137 1288.212384333602 401.5872611610737Q1281.0965837811589 409.4606374377311 1279.716713712054 423.50284461156355L1279.716713712054 423.50284461156355L1332.9093520622553 423.50284461156355Q1332.9093520622553 414.54721730031395 1330.1766681999104 407.91842971343743Q1327.443984337565 401.28964212656086 1321.897447785281 397.50176350548855Q1316.3509112329964 393.68682860855137 1307.5846778528005 393.68682860855137ZM1394.4623796546805 337.9779566029235L1394.4623796546805 486.02989813512164L1377.3357570322607 486.02989813512164L1377.3357570322607 337.9779566029235L1394.4623796546805 337.9779566029235ZM1444.732940211483 337.9779566029235L1444.732940211483 486.02989813512164L1427.5792613131987 486.02989813512164L1427.5792613131987 337.9779566029235L1444.732940211483 337.9779566029235ZM1568.623627396413 433.62189178499955L1568.623627396413 433.62189178499955Q1568.623627396413 446.6900730276991 1565.2145366374477 456.7008950976759Q1561.8054458784825 466.7387734435176 1555.474277326119 473.7463488925014Q1549.1431087737553 480.78098061734994 1540.0792563590464 484.37946530736866Q1531.0154039443375 487.9779499973874 1519.9223308397688 487.9779499973874L1519.9223308397688 487.9779499973874Q1509.586833459414 487.9779499973874 1500.8206000792181 484.37946530736866Q1492.0543666990222 480.78098061734994 1485.6420293190642 473.7463488925014Q1479.2026356632412 466.7387734435176 1475.6041509732224 456.7008950976759Q1472.0056662832037 446.6900730276991 1472.0056662832037 433.62189178499955L1472.0056662832037 433.62189178499955Q1472.0056662832037 416.2788189556613 1477.8498218700013 404.3199450234187Q1483.6939774567984 392.33401481531126 1494.5976566303136 386.00284626294757Q1505.5013358038289 379.6716777105838 1520.5175689087944 379.6716777105838L1520.5175689087944 379.6716777105838Q1534.7221137378153 379.6716777105838 1545.5446240837366 386.00284626294757Q1556.3400781537928 392.33401481531126 1562.4818527751029 404.3199450234187Q1568.623627396413 416.2788189556613 1568.623627396413 433.62189178499955ZM1489.7275269746494 433.62189178499955L1489.7275269746494 433.62189178499955Q1489.7275269746494 445.9054410276198 1492.9472238025608 454.9692934423286Q1496.166920630472 464.00608958117255 1502.9851021484026 468.87621923683696Q1509.8032836663326 473.7463488925014 1520.3011187018758 473.7463488925014L1520.3011187018758 473.7463488925014Q1530.826010013284 473.7463488925014 1537.6441915312141 468.87621923683696Q1544.4623730491442 464.00608958117255 1547.682069877056 454.9692934423286Q1550.9017667049673 445.9054410276198 1550.9017667049673 433.62189178499955L1550.9017667049673 433.62189178499955Q1550.9017667049673 421.1489486113257 1547.5738447735969 412.3827152311298Q1544.2729791180907 403.61648185093384 1537.5630227036197 398.85457729872866Q1530.826010013284 394.0926727465234 1520.1117247708223 394.0926727465234L1520.1117247708223 394.0926727465234Q1504.148522010589 394.0926727465234 1496.9244963546869 404.5905077820667Q1489.7275269746494 415.1153990934748 1489.7275269746494 433.62189178499955Z " fill="#2c4058" transform="matrix(0.5578138563177186,0,0,0.5578138563177186,0,69.63515982441537)"/></g></svg>